<?xml version="1.0" encoding="utf-8"?>
<!-- Generator: Adobe Illustrator 23.0.1, SVG Export Plug-In . SVG Version: 6.00 Build 0)  -->
<svg version="1.1" xmlns="http://www.w3.org/2000/svg" xmlns:xlink="http://www.w3.org/1999/xlink" x="0px" y="0px"
	 viewBox="0 0 32 32" style="enable-background:new 0 0 32 32;" xml:space="preserve">
<style type="text/css">
	.st0{display:none;}
	.st1{display:inline;}
	.st2{fill:#999999;}
	.st3{fill:#06D0FF;}
	.st4{display:none;fill:#FF0808;}
	.st5{fill:#FF0808;}
	.st6{opacity:0.71;fill:#FFFFFF;}
	.st7{fill:#FF9408;}
	.st8{display:inline;fill:#FFFFFF;}
</style>
<g id="default" class="st0">
	<g class="st1">
		<g>
			<path class="st2" d="M16,5.21c3.31,0,6.01,2.7,6.01,6.01s-2.7,6.01-6.01,6.01s-6.01-2.7-6.01-6.01S12.69,5.21,16,5.21 M16,4.21
				c-3.87,0-7.01,3.14-7.01,7.01s3.14,7.01,7.01,7.01s7.01-3.14,7.01-7.01S19.87,4.21,16,4.21L16,4.21z"/>
		</g>
	</g>
	<g class="st1">
		<g>
			<path class="st2" d="M21.99,19.23c2.59,0,4.7,2.11,4.7,4.7v1.87H5.32v-1.87c0-2.59,2.11-4.7,4.7-4.7H21.99 M21.99,18.23H10.01
				c-3.15,0-5.7,2.55-5.7,5.7v2.87h23.37v-2.87C27.68,20.78,25.13,18.23,21.99,18.23L21.99,18.23z"/>
		</g>
	</g>
	<g class="st1">
		<path class="st2" d="M30,2v28H2V2H30 M31,1H1v30h30V1L31,1z"/>
	</g>
</g>
<g id="Layer_2">
	<g>
		<path class="st3" d="M23.89,32H8.11C3.63,32,0,28.37,0,23.89V8.11C0,3.63,3.63,0,8.11,0h15.79C28.37,0,32,3.63,32,8.11v15.79
			C32,28.37,28.37,32,23.89,32z"/>
	</g>
	<path class="st4" d="M17.59,27.7c0,0-10.22-7.07-10.22-13.15c0-2.84,1.32-4.79,2.81-6.11c1.46-1.3,4.77-2.7,7.41-0.46
		c2.65-2.24,5.95-0.84,7.41,0.46c1.49,1.32,2.81,3.27,2.81,6.11C27.81,20.63,17.59,27.7,17.59,27.7z"/>
	<path class="st5" d="M16,26.91c0,0-12.48-7.75-12.48-13.83c0-2.84,1.32-4.79,2.81-6.11c1.46-1.3,5.96-3.57,9.67,0.22
		c3.72-3.8,8.21-1.52,9.67-0.22c1.49,1.32,2.81,3.27,2.81,6.11C28.48,19.15,16,26.91,16,26.91z"/>
	<circle class="st6" cx="25.12" cy="6.73" r="2.07"/>
	<path class="st6" d="M29.49,17.97c-0.73,2.92-3.23,4.78-4.25,4.53c0,0,1.08-1.92,1.81-4.85s-1.13-5.23,0.85-5.74
		C29.78,11.43,30.22,15.04,29.49,17.97z"/>
</g>
<g id="Layer_3" class="st0">
	<g class="st1">
		<path class="st7" d="M23.89,32H8.11C3.63,32,0,28.37,0,23.89V8.11C0,3.63,3.63,0,8.11,0h15.79C28.37,0,32,3.63,32,8.11v15.79
			C32,28.37,28.37,32,23.89,32z"/>
	</g>
	<circle class="st8" cx="9.28" cy="10.74" r="4"/>
	<circle class="st8" cx="22.81" cy="10.74" r="4"/>
	<path class="st8" d="M16.17,29.38c6.73,0,12.19-3.94,12.19-8.81H3.98C3.98,25.44,9.44,29.38,16.17,29.38z"/>
</g>
</svg>
