<?xml version="1.0" encoding="utf-8"?>
<!-- Generator: Adobe Illustrator 23.0.1, SVG Export Plug-In . SVG Version: 6.00 Build 0)  -->
<svg version="1.1" xmlns="http://www.w3.org/2000/svg" xmlns:xlink="http://www.w3.org/1999/xlink" x="0px" y="0px"
	 viewBox="0 0 32 32" style="enable-background:new 0 0 32 32;" xml:space="preserve">
<style type="text/css">
	.st0{display:none;}
	.st1{display:inline;fill:#0722E2;}
	.st2{fill:#FFFFFF;}
	.st3{display:inline;fill:#FFFFFF;}
	.st4{display:inline;}
</style>
<g id="Layer_2" class="st0">
	<path class="st1" d="M25.85,32H6.15C2.75,32,0,29.25,0,25.85V6.15C0,2.75,2.75,0,6.15,0h19.7C29.25,0,32,2.75,32,6.15v19.7
		C32,29.25,29.25,32,25.85,32z"/>
</g>
<g id="phone">
	<path class="st2" d="M18.43,23.01c0,0-3.76-1.97-5.37-3.76s-3.32-3.67-3.94-5.57c0,0-0.3-0.73,0.48-1.4
		c0.78-0.66,3.21-2.41,2.45-3.74c-0.76-1.33-2.77-4.54-2.99-4.93s-1.32-1.13-3.22,0S3.09,7.39,2.86,8.7
		c-0.23,1.31,1.22,6.79,3.65,10.02s7.7,8.78,13.59,10.02c5.89,1.24,8.62-2.11,8.76-4.42c0,0,0-1.17-1.06-1.77s-3.56-1.88-4.45-2.52
		c-0.89-0.64-1.58,0.27-2.2,0.92c-0.62,0.64-1.44,1.58-1.68,1.83C19.25,23.03,18.85,23.24,18.43,23.01z"/>
</g>
<g id="text" class="st0">
	<path class="st3" d="M23.62,5.57H9.38C7.51,5.57,6,7.09,6,8.96v3.72v8.51L4.09,29.4L9,24.57c0,0,0.25,0,0.38,0h14.23
		c1.87,0,3.38-1.51,3.38-3.38V8.96C27,7.09,25.49,5.57,23.62,5.57z M24,18.45c-5,0-10,0-15,0c-0.48,0-0.48-0.75,0-0.75
		c5,0,10,0,15,0C24.48,17.7,24.48,18.45,24,18.45z M24,12.45c-5,0-10,0-15,0c-0.48,0-0.48-0.75,0-0.75c5,0,10,0,15,0
		C24.48,11.7,24.48,12.45,24,12.45z"/>
</g>
<g id="Layer_4" class="st0">
	<g class="st4">
		<path class="st2" d="M16,16.55L1.53,9.67C1.52,9.76,1.5,9.85,1.5,9.94v12.13c0,1.35,1.09,2.44,2.44,2.44h24.13
			c1.35,0,2.44-1.09,2.44-2.44V9.94c0-0.12-0.02-0.24-0.04-0.36L16,16.55z"/>
		<path class="st2" d="M16,15.45l14.12-6.81c-0.43-0.68-1.19-1.14-2.05-1.14H3.94c-0.9,0-1.67,0.49-2.1,1.21L16,15.45z"/>
	</g>
</g>
</svg>
