<?xml version="1.0" encoding="utf-8"?>
<!-- Generator: Adobe Illustrator 23.0.1, SVG Export Plug-In . SVG Version: 6.00 Build 0)  -->
<svg version="1.1" xmlns="http://www.w3.org/2000/svg" xmlns:xlink="http://www.w3.org/1999/xlink" x="0px" y="0px"
	 viewBox="0 0 16 16" style="enable-background:new 0 0 16 16;" xml:space="preserve">
<style type="text/css">
	.st0{display:none;}
	.st1{display:inline;}
	.st2{fill:#6CFF43;}
	.st3{fill:#FFFFFF;}
</style>
<g id="Layer_2" class="st0">
	<g class="st1">
		<rect class="st2" width="16" height="16"/>
	</g>
</g>
<g id="Layer_1">
	<path class="st3" d="M12.51,14.95c-0.32,0-0.63-0.14-0.87-0.41l-3-3.34c-0.67,0.33-1.39,0.5-2.11,0.5c-2.68,0-4.86-2.18-4.86-4.86
		s2.18-4.86,4.86-4.86c2.68,0,4.86,2.18,4.86,4.86c0,0.98-0.29,1.91-0.86,2.73l2.92,3.25c0.34,0.38,0.42,0.89,0.21,1.35
		C13.45,14.64,12.99,14.95,12.51,14.95L12.51,14.95z M6.52,3.98c-1.58,0-2.86,1.28-2.86,2.86S4.94,9.7,6.52,9.7s2.86-1.28,2.86-2.86
		S8.1,3.98,6.52,3.98z"/>
</g>
</svg>
